<svg xmlns="http://www.w3.org/2000/svg" width="262.519" height="156.938" viewBox="0 0 262.519 156.938"><g transform="translate(0)"><path d="M819.633,587.92a13.565,13.565,0,0,1-4.867-11.694,10.966,10.966,0,0,1,8.153-9.31c4.3-.927,9.2,1.64,10.511,5.842.719-8.1,1.548-16.541,5.854-23.44A24.823,24.823,0,0,1,857.259,537.8a22.272,22.272,0,0,1,19.593,8,20.214,20.214,0,0,1,2.486,20.811c-2.355,4.887-6.7,8.523-11.242,11.482a72.557,72.557,0,0,1-49.623,10.856Z" transform="translate(-618.643 -432.745)" fill="#f2f2f2"/><path d="M915.2,545.624a119.72,119.72,0,0,0-35.177,47.566c-.336.822,1,1.18,1.331.367A118.388,118.388,0,0,1,916.179,546.6C916.868,546.039,915.886,545.068,915.2,545.624Z" transform="translate(-664.232 -438.179)" fill="#fff"/><path d="M249.509,541.937a18.632,18.632,0,0,0,6.685-16.061c-.735-6-5.29-11.513-11.2-12.787s-12.642,2.252-14.437,8.023c-.988-11.126-2.126-22.719-8.041-32.194A34.1,34.1,0,0,0,197.83,473.1a30.591,30.591,0,0,0-26.911,10.986c-6.271,7.936-7.806,19.473-3.414,28.584,3.235,6.712,9.2,11.707,15.441,15.771A99.655,99.655,0,0,0,251.1,543.352" transform="translate(-165 -387.534)" fill="#f2f2f2"/><path d="M213.718,483.844a163.049,163.049,0,0,1,22.723,22.563,163.525,163.525,0,0,1,25.593,42.768c.461,1.129-1.373,1.621-1.829.5a162.6,162.6,0,0,0-47.828-64.5c-.947-.771.4-2.106,1.341-1.341Z" transform="translate(-197.856 -394.997)" fill="#fff"/><path d="M534.637,346.537H424.5v-113a43.652,43.652,0,0,1,43.6-43.6h22.933a43.652,43.652,0,0,1,43.6,43.6Z" transform="translate(-346.197 -189.931)" fill="#f2f2f2"/><path d="M511.7,346.539H424.5v-113a43.265,43.265,0,0,1,8.327-25.632c.2-.273.4-.542.606-.809a43.59,43.59,0,0,1,9.28-9.007c.2-.145.4-.287.6-.429a43.5,43.5,0,0,1,9.5-4.966c.2-.076.4-.151.605-.224a43.458,43.458,0,0,1,9.387-2.214c.2-.027.4-.048.606-.07a44.139,44.139,0,0,1,9.386,0c.2.021.407.042.608.07a43.449,43.449,0,0,1,9.384,2.213c.2.073.406.148.606.224a43.391,43.391,0,0,1,9.386,4.893c.2.139.406.282.605.424a44.048,44.048,0,0,1,5.547,4.7,43.536,43.536,0,0,1,3.84,4.391c.205.266.405.535.605.808a43.265,43.265,0,0,1,8.327,25.632Z" transform="translate(-346.197 -189.933)" fill="#ccc"/><circle cx="4.828" cy="4.828" r="4.828" transform="translate(153.588 96.408)" fill="#6c63ff"/><path d="M581.965,474.764h-3.7l-1.76-14.269h5.46Z" transform="translate(-402.548 -321.543)" fill="#ffb8b8"/><path d="M563.187,504.28h7.134v4.492H558.695A4.492,4.492,0,0,1,563.187,504.28Z" transform="translate(-390.111 -352.116)" fill="#2f2e41"/><path d="M642.966,474.764h-3.7l-1.76-14.269h5.46Z" transform="translate(-445.141 -321.543)" fill="#ffb8b8"/><path d="M624.187,504.28h7.134v4.492H619.695A4.492,4.492,0,0,1,624.187,504.28Z" transform="translate(-432.705 -352.116)" fill="#2f2e41"/><path d="M696.8,437.332a3.242,3.242,0,0,1,1.361-4.781l12.575-34.66,6.188,3.377L702.569,434.39a3.259,3.259,0,0,1-5.766,2.941Z" transform="translate(-535.943 -335.14)" fill="#ffb8b8"/><path d="M803.3,454.017a3.241,3.241,0,0,1-.873-4.893l-3.9-36.665,7.042.322,1.619,36.065a3.259,3.259,0,0,1-3.892,5.172Z" transform="translate(-607.367 -345.312)" fill="#ffb8b8"/><circle cx="7.411" cy="7.411" r="7.411" transform="translate(177.289 41.509)" fill="#ffb8b8"/><path d="M762.476,426.976H740.133l.027-.174c.04-.26,3.982-26.083,1.075-34.531a3.565,3.565,0,0,1,1.831-4.4h0c4.156-1.957,12.132-4.367,18.865,1.481a8.52,8.52,0,0,1,2.854,7.06Z" transform="translate(-566.589 -326.61)" fill="#6c63ff"/><path d="M731.077,410.27l-10.059-2.041,4.715-11.174a4.224,4.224,0,0,1,8.179,2.112Z" transform="translate(-553.242 -332.344)" fill="#6c63ff"/><path d="M795.459,415.868l-.6-13.863c-.458-2.606,1.033-5.069,3.328-5.472s4.536,1.406,5,4.031l2.273,12.953Z" transform="translate(-604.741 -334.153)" fill="#6c63ff"/><path d="M758.947,517.049c3.6,13.692,3.987,31.1,3.017,50.09l-4.828-.6-8.751-36.209-4.828,36.813-5.431-.3c-1.623-19.924-3.2-37.029-.6-48.279Z" transform="translate(-563.804 -418.343)" fill="#2f2e41"/><path d="M761.4,332.727a2.394,2.394,0,0,1-4.13-1.33,2.437,2.437,0,0,1,0-.469c.093-.891.608-1.7.485-2.641a1.384,1.384,0,0,0-.253-.648c-1.1-1.475-3.688.66-4.728-.676-.638-.819.112-2.108-.377-3.024-.646-1.208-2.558-.612-3.758-1.274-1.335-.736-1.255-2.784-.376-4.029a6.338,6.338,0,0,1,4.8-2.446,12.888,12.888,0,0,1,5.429,1.06,10.849,10.849,0,0,1,5.13,3.557,8.683,8.683,0,0,1,.878,7.393A13.937,13.937,0,0,1,761.4,332.727Z" transform="translate(-571.816 -278.08)" fill="#2f2e41"/><path d="M488.633,707.911H265.856a.359.359,0,1,1,0-.719H488.633a.359.359,0,1,1,0,.719Z" transform="translate(-235.172 -551.111)" fill="#3f3d56"/><path d="M538.688,388.859H499.461a1.951,1.951,0,0,1-1.961-1.936V299.366a1.951,1.951,0,0,1,1.961-1.936h39.227a1.951,1.951,0,0,1,1.961,1.936v87.557A1.951,1.951,0,0,1,538.688,388.859Z" transform="translate(-397.17 -264.993)" fill="#fff"/><rect width="43.15" height="0.603" transform="translate(100.33 60.768)" fill="#ccc"/><rect width="43.15" height="0.603" transform="translate(100.481 95.201)" fill="#ccc"/><rect width="0.603" height="91.731" transform="translate(113.909 32.438)" fill="#ccc"/><rect width="0.603" height="91.731" transform="translate(128.996 32.438)" fill="#ccc"/></g></svg>