<svg xmlns="http://www.w3.org/2000/svg" width="351.362" height="190.66" viewBox="0 0 351.362 190.66"><g transform="translate(-0.001 0.002)"><g transform="translate(0.001 -0.002)"><path d="M-1056.16-305.712l322.77-.094s43.169-45.4,7.3-94.558c-14.7-20.142-34.58-35.791-59.913-35.061-13.06.352-25.537,5.171-36.238,12.126-11.6,7.538-45.023.93-73.476-43.451-14.328-22.341-41.429-31.134-68.095-29.413a104.762,104.762,0,0,0-41.4,11.516c-22.625,11.841-38.768,31.555-41.743,56.74-2.2,18.585,3.127,29.294,4.13,39.409,3.766,36.554-36.05,40.932-13.332,82.782Z" transform="translate(1063.206 496.372)" fill="#fcecdb"/><path d="M-918.251-484.242c-14.063-9.423-31.95-13.082-49.642-11.918a101.021,101.021,0,0,0-40.557,11.516c-22.163,11.841-37.977,31.555-40.891,56.74-1.6,13.827.873,23.294,2.652,31.4h128.437Z" transform="translate(1065.256 496.371)" fill="#e1fff8"/><path d="M-1030.11-432.768c10.751-5.488,16.96-7.6,18.406-19.511.632-5.2,5.671-7.17,12.119-8.785,1.817-.457,3.738-.883,5.71-1.35,7.048-1.661,14.67-3.8,19.792-9.353,7.509-8.15,7.29-18.273,6.19-24.423a101.023,101.023,0,0,0-40.558,11.519c-22.163,11.841-37.977,31.555-40.89,56.74a73.134,73.134,0,0,0-.088,16.609c.009.052.017.1.023.151C-1041.726-413.69-1038.583-428.443-1030.11-432.768Z" transform="translate(1065.257 496.399)" fill="#aed9e0"/><path d="M-1033.32-417.8v16.77h112.526v-52.529h-10.033V-437.6h-11.44v-26.014h-12.623v16.887h-2.878v-20.157h-12.623v37.8h-15.962v22.041h-5.964v-9.811h-13.7v5.8h-7.866v-25.981h-9.715V-417.8Z" transform="translate(1067.799 500.901)" fill="#b8f2e6"/><path d="M-903.881-409.8h-143.236a68.538,68.538,0,0,1,1.394,8.009h141.842Z" transform="translate(1065.682 509.671)" fill="#f9ddbf"/><path d="M-935.038-485.413a64.428,64.428,0,0,0-5.6-3.349v91.544h5.71v-88.12Z" transform="translate(1085.04 497.54)" fill="#f9ddbf"/><path d="M-1006.282-489.534v92.765h5.71v-94.906q-2.888.981-5.71,2.14Z" transform="translate(1073.346 497.092)" fill="#f9ddbf"/><path d="M-828.77-443.486c.435-.024.867-.042,1.3-.052,14.7-.432,30.2,4.915,45.047,19.121q.653.623,1.3,1.271c.488.484.977.98,1.46,1.483v14.545H-830.23v-36.271q.727-.059,1.459-.1Z" transform="translate(1106.184 504.485)" fill="#f9ddbf"/><path d="M-827.661-443.539c14.7-.434,30.194,4.915,45.046,19.121q.653.623,1.3,1.271v14.19h-47.652v-34.531c.435-.022.869-.039,1.3-.052Z" transform="translate(1106.378 504.485)" fill="#ffead7"/><path d="M-827.834-443.538V-410.6h45.046v-13.821C-797.64-438.624-813.134-443.972-827.834-443.538Z" transform="translate(1106.552 504.485)" fill="#f4e0ce"/><path d="M-1001.006-362.887l1.844,6.989h0l7.678,29.081h.809l-4.441-24.126c0-.024-.009-.047-.014-.074l-2.2-11.932Z" transform="translate(1074.307 516.873)" fill="#e8c6a7"/><path d="M-1032.443-326.814h.806l6.259-23.689v0l1.421-5.387h0l1.844-6.989-3.686-.061-1.254,6.823-.941,5.11c0,.024-.011.052-.015.074Z" transform="translate(1067.933 516.872)" fill="#e8c6a7"/><path d="M-1037.326-361.381h60.436a1.491,1.491,0,0,0,1.488-1.487v-4.325a1.493,1.493,0,0,0-1.488-1.487h-60.436a1.492,1.492,0,0,0-1.487,1.487v4.325a1.49,1.49,0,0,0,1.487,1.487Z" transform="translate(1066.955 515.992)" fill="#efcbab"/></g><g transform="translate(134.446 77.449)"><g transform="translate(0 0)"><path d="M-940.332-390.833v-.608a1.4,1.4,0,0,1,1.179-1.38l14.328-2.262a1.4,1.4,0,0,1,1.125.318,1.4,1.4,0,0,1,.489,1.062v2.87Z" transform="translate(951.143 434.481)" fill="#bcbec0"/><path d="M-909.155-389.965h6.3l-10.812-22.525-.9,4.5Z" transform="translate(955.106 431.81)" fill="#9d9fa1"/><path d="M-895.4-391.041h-20.723v-1.013a1.69,1.69,0,0,1,1.689-1.69h17.344a1.69,1.69,0,0,1,1.69,1.69Z" transform="translate(954.863 434.689)" fill="#bcbec0"/><path d="M-917.275-393.044a1.225,1.225,0,0,1-.787-.522,1.225,1.225,0,0,1-.182-.926l7.06-33.772a1.219,1.219,0,0,1,1.443-.945,1.226,1.226,0,0,1,.786.522,1.226,1.226,0,0,1,.182.926l-7.057,33.773A1.22,1.22,0,0,1-917.275-393.044Z" transform="translate(954.533 429.235)" fill="#bcbec0"/><rect width="2.703" height="65.773" transform="translate(63.07 47.252)" fill="#efcbab"/><rect width="2.703" height="65.773" transform="translate(9.01 47.252)" fill="#efcbab"/><rect width="2.703" height="2.703" transform="translate(9.01 47.252)" fill="#8a6266"/><rect width="2.703" height="2.703" transform="translate(63.07 47.252)" fill="#8a6266"/><rect width="75.684" height="4.505" rx="1.933" transform="translate(0 43.649)" fill="#efcbab"/></g></g></g></svg>